<svg width="31" height="31" viewBox="0 0 31 31" fill="none" xmlns="http://www.w3.org/2000/svg">
<path d="M26.6406 3.39062H4.35938C3.82354 3.39062 3.39062 3.82354 3.39062 4.35938V26.6406C3.39062 27.1765 3.82354 27.6094 4.35938 27.6094H26.6406C27.1765 27.6094 27.6094 27.1765 27.6094 26.6406V4.35938C27.6094 3.82354 27.1765 3.39062 26.6406 3.39062ZM23.8434 10.4595H21.9089C20.3922 10.4595 20.0985 11.18 20.0985 12.2396V14.5736H23.7192L23.247 18.2276H20.0985V27.6094H16.3234V18.2307H13.1659V14.5736H16.3234V11.8793C16.3234 8.75205 18.2337 7.04766 21.0249 7.04766C22.363 7.04766 23.5104 7.14756 23.8464 7.19297V10.4595H23.8434Z" fill="#DFDFDF"/>
</svg>
