<svg width="26" height="26" viewBox="0 0 26 26" fill="none" xmlns="http://www.w3.org/2000/svg">
<path d="M5.28046 13.3097C5.28046 17.4009 8.59856 20.7203 12.6905 20.7203C16.7817 20.7203 20.1011 17.4016 20.1011 13.3097C20.1011 12.6659 20.119 12.0716 20.119 11.4525H21.9762V20.7382C21.9762 21.9639 21.3447 22.5954 20.119 22.5954H4.64284C3.41713 22.5954 2.7857 21.9639 2.7857 20.7382V11.4525H5.26189C5.26189 12.0716 5.28046 12.6659 5.28046 13.3097V13.3097ZM0.309509 4.13538V22.4839C0.309509 24.5695 1.42999 25.6906 3.51618 25.6906H21.8647C23.9503 25.6906 25.0714 24.5695 25.0714 22.4839V4.13538C25.0714 2.04981 23.9503 0.928711 21.8647 0.928711H3.51618C1.42999 0.928711 0.309509 2.04981 0.309509 4.13538ZM7.77522 13.3097C7.77522 10.592 9.97284 8.39504 12.6905 8.39504C13.336 8.39447 13.9754 8.52121 14.5719 8.76799C15.1684 9.01477 15.7104 9.37675 16.1669 9.83323C16.6234 10.2897 16.9854 10.8317 17.2321 11.4282C17.4789 12.0248 17.6057 12.6641 17.6051 13.3097C17.6057 13.9552 17.4791 14.5946 17.2323 15.1912C16.9856 15.7877 16.6236 16.3298 16.1671 16.7863C15.7106 17.2428 15.1685 17.6048 14.572 17.8515C13.9754 18.0983 13.336 18.2249 12.6905 18.2243C12.0449 18.2249 11.4055 18.0983 10.8089 17.8515C10.2123 17.6048 9.67017 17.2428 9.21363 16.7863C8.75709 16.3298 8.39504 15.7878 8.14823 15.1912C7.90141 14.5947 7.77465 13.9553 7.77522 13.3097V13.3097ZM18.2619 4.95252C18.2619 4.43871 18.6767 4.02395 19.1905 4.02395H21.0476C21.5614 4.02395 21.9762 4.43871 21.9762 4.95252V6.80966C21.9762 7.32347 21.5614 7.73823 21.0476 7.73823H19.1905C18.6767 7.73823 18.2619 7.32347 18.2619 6.80966V4.95252Z" fill="#DFDFDF"/>
</svg>
