<svg width="25" height="25" viewBox="0 0 25 25" fill="none" xmlns="http://www.w3.org/2000/svg">
<path d="M4.90162 0.00634766C2.2087 0.00634766 0.00469971 2.2103 0.00469971 4.90327V20.0993C0.00469971 22.7922 2.20865 24.9954 4.90162 24.9954H20.0977C22.7906 24.9954 24.9938 22.7922 24.9938 20.0993V4.90327C24.9938 2.21035 22.7906 0.00634766 20.0977 0.00634766H4.90162ZM6.13327 4.13005C7.42447 4.13005 8.2198 4.9777 8.24435 6.09192C8.24435 7.18155 7.42442 8.05302 6.1083 8.05302H6.08407C4.81745 8.05302 3.99877 7.1816 3.99877 6.09192C3.99877 4.97772 4.84222 4.13005 6.13325 4.13005H6.13327ZM17.2603 9.3378C19.7435 9.3378 21.605 10.9608 21.605 14.4487V20.9599H17.8312V14.8852C17.8312 13.3587 17.285 12.3173 15.9193 12.3173C14.8767 12.3173 14.2552 13.0192 13.9824 13.6973C13.8827 13.9399 13.8582 14.2788 13.8582 14.6181V20.9599H10.0844C10.0844 20.9599 10.1339 10.6696 10.0844 9.6041H13.859V11.2122C14.3605 10.4384 15.2575 9.33777 17.2603 9.33777V9.3378ZM4.22137 9.60492H7.9952V20.96H4.22137V9.60492V9.60492Z" fill="#DFDFDF"/>
</svg>
