<svg width="72" height="72" viewBox="0 0 72 72" fill="none" xmlns="http://www.w3.org/2000/svg">
<path d="M47.25 36C44.3588 36 41.5631 34.7091 39.375 32.3663C37.2473 30.0811 35.948 27.0338 35.7188 23.7881C35.4741 20.3259 36.5302 17.1422 38.6916 14.8219C40.853 12.5016 43.875 11.25 47.25 11.25C50.6011 11.25 53.6316 12.5241 55.7859 14.8387C57.9614 17.1759 59.0203 20.3541 58.7756 23.7867C58.5408 27.0366 57.2428 30.0825 55.1194 32.3648C52.9369 34.7091 50.1427 36 47.25 36Z" fill="#E8F4FF"/>
<path d="M65.7886 60.75H28.7128C28.1167 60.7532 27.5278 60.6196 26.9915 60.3595C26.4551 60.0993 25.9856 59.7196 25.6191 59.2495C25.2302 58.7399 24.9617 58.149 24.8336 57.5209C24.7055 56.8929 24.7212 56.244 24.8794 55.6228C26.0634 50.8683 28.9969 46.9252 33.3619 44.2209C37.2361 41.8219 42.1678 40.5 47.25 40.5C52.432 40.5 57.2344 41.7656 61.1311 44.1633C65.5059 46.8534 68.4436 50.8191 69.622 55.6313C69.7783 56.2529 69.7922 56.9018 69.6627 57.5295C69.5331 58.1572 69.2635 58.7476 68.8739 59.2566C68.5077 59.7245 68.0393 60.1023 67.5045 60.3612C66.9697 60.62 66.3827 60.7531 65.7886 60.75Z" fill="#E8F4FF"/>
<path d="M20.6719 36.5625C15.7233 36.5625 11.3723 31.9613 10.9687 26.3067C10.7691 23.4098 11.6719 20.7309 13.5 18.7664C15.3084 16.8216 17.8594 15.75 20.6719 15.75C23.4844 15.75 26.0156 16.8272 27.8339 18.7833C29.6761 20.7633 30.5761 23.4366 30.3652 26.3095C29.9616 31.9627 25.612 36.5625 20.6719 36.5625Z" fill="#E8F4FF"/>
<path d="M29.9053 40.9851C27.4317 39.7758 24.2213 39.1711 20.6733 39.1711C16.5305 39.1711 12.5072 40.2511 9.34313 42.2114C5.75579 44.4375 3.34266 47.6789 2.36813 51.5925C2.22552 52.1554 2.21203 52.7433 2.32867 53.3121C2.44532 53.881 2.68908 54.4161 3.04172 54.8775C3.37634 55.307 3.80502 55.6541 4.29479 55.8921C4.78456 56.13 5.32238 56.2525 5.86688 56.25H21.4763C21.7397 56.2499 21.9948 56.1574 22.1971 55.9886C22.3993 55.8198 22.5359 55.5853 22.583 55.3261C22.5984 55.2375 22.6181 55.1489 22.6406 55.0617C23.8331 50.272 26.6273 46.2248 30.7561 43.2745C30.908 43.1651 31.0301 43.0194 31.1115 42.8508C31.1928 42.6822 31.2308 42.496 31.222 42.309C31.2132 42.122 31.1579 41.9402 31.0611 41.78C30.9642 41.6198 30.829 41.4863 30.6675 41.3916C30.4467 41.2622 30.1936 41.1258 29.9053 40.9851Z" fill="#E8F4FF"/>
</svg>
